#!OML:ASF H:\Male1\Project 1\Capture day 1\Session 1\Male1.ASF
:FULLY-SPECIFIED
:DEGREES
211
root -9.47458 14.8323 1.08097 173.223 -84.828 -176.27
lowerback 10.3111 1.73608 -1.18136
upperback 7.63339 1.83961 -1.5463
thorax 2.18362 0.751508 -1.09538
lowerneck -5.7692 2.54076 7.58094
upperneck 21.8629 1.95093 -0.262556
head 7.79309 1.3019 -1.22501
rclavicle -1.19271e-014 -2.38542e-015
rhumerus -43.5099 0.989174 -84.9682
rradius 54.3871
rwrist -25.6403
rhand -17.2781 3.28595
rfingers 7.12502
rthumb 8.96697 -26.5035
lclavicle -1.19271e-014 -2.38542e-015
lhumerus -49.4708 6.81668 63.3151
lradius 27.4785
lwrist -10.9196
lhand -0.0405307 9.51441
lfingers 7.12502
lthumb 25.5516 37.8207
rfemur 1.17248 2.83217 23.6002
rtibia 52.5283
rfoot -13.1598 -17.0993
rtoes -25.7203
lfemur -22.4817 -11.0195 -17.705
ltibia 36.4853
lfoot -14.806 9.93421
ltoes -14.6699
212
root -9.73662 14.8369 1.12451 182.243 -84.2234 -185.667
lowerback 10.4438 1.793 -2.17624
upperback 7.6749 1.81977 -1.91024
thorax 2.13744 0.703871 -0.917662
lowerneck -5.83081 2.67908 7.40053
upperneck 21.9955 2.11185 -0.0860778
head 7.85104 1.37862 -1.12267
rclavicle -3.77691e-015 -2.38542e-015
rhumerus -43.3798 1.34286 -85.4069
rradius 53.5312
rwrist -24.6563
rhand -16.6095 2.76603
rfingers 7.12502
rthumb 9.61215 -26.9947
lclavicle -3.77691e-015 -2.38542e-015
lhumerus -48.0191 7.02459 63.6511
lradius 26.1129
lwrist -11.8307
lhand -1.97481 10.2678
lfingers 7.12502
lthumb 23.6976 38.827
rfemur -1.31401 2.78278 22.2178
rtibia 57.3725
rfoot -11.5492 -17.1612
rtoes -24.8868
lfemur -20.9418 -9.77668 -19.2662
ltibia 36.4672
lfoot -15.0346 9.69
ltoes -13.6241
213
root -9.99188 14.8443 1.16601 188.954 -83.6047 -192.728
lowerback 10.5744 1.79099 -3.09682
upperback 7.73942 1.72265 -2.22451
thorax 2.12028 0.6178 -0.723967
lowerneck -5.88494 2.85224 7.273
upperneck 22.0585 2.34555 -0.0292762
head 7.88822 1.48354 -1.0619
rclavicle 4.77083e-015 7.15625e-015
rhumerus -43.1502 1.79624 -85.8084
rradius 52.6345
rwrist -23.579
rhand -15.6445 2.10869
rfingers 7.12502
rthumb 10.5431 -27.6069
lclavicle 4.77083e-015 7.15625e-015
lhumerus -46.5526 7.545 63.9503
lradius 25.0489
lwrist -12.6619
lhand -4.62936 11.366
lfingers 7.12502
lthumb 21.1495 40.2324
rfemur -4.00071 2.76649 21.0583
rtibia 61.8499
rfoot -10.8838 -17.5127
rtoes -23.6517
lfemur -19.3699 -8.87855 -20.7025
ltibia 36.3044
lfoot -15.3991 9.54896
ltoes -12.581
214
root -10.2434 14.8555 1.20515 193.832 -83.0528 -197.928
lowerback 10.6954 1.72658 -3.90392
upperback 7.80671 1.55053 -2.47733
thorax 2.11712 0.49696 -0.523607
lowerneck -5.90204 3.04117 7.23002
upperneck 22.0924 2.62069 -0.0974536
head 7.91301 1.60346 -1.05306
rclavicle -3.18055e-015 -1.98785e-014
rhumerus -42.8941 2.31999 -86.165
rradius 51.7412
rwrist -22.448
rhand -14.4946 1.41975
rfingers 7.12502
rthumb 11.6522 -28.2362
lclavicle -3.18055e-015 -1.98785e-014
lhumerus -45.1122 8.33063 64.2408
lradius 24.3586
lwrist -13.2268
lhand -7.6879 12.7001
lfingers 7.12502
lthumb 18.2091 41.8678
rfemur -6.75221 2.72848 20.1538
rtibia 65.6933
rfoot -11.1255 -18.083
rtoes -21.942
lfemur -17.7642 -8.3109 -21.9991
ltibia 36.0055
lfoot -15.9345 9.62559
ltoes -12.0348
215
root -10.4896 14.8697 1.24104 196.34 -82.6074 -200.689
lowerback 10.8381 1.61508 -4.46851
upperback 7.83352 1.33604 -2.63023
thorax 2.0665 0.365478 -0.351426
lowerneck -5.88366 3.22432 7.25407
upperneck 22.149 2.89421 -0.237831
head 7.9414 1.72112 -1.07975
rclavicle -6.36111e-015 2.78299e-014
rhumerus -42.6763 2.86595 -86.4745
rradius 50.862
rwrist -21.3431
rhand -13.3748 0.864051
rfingers 7.12502
rthumb 12.7319 -28.7278
lclavicle -6.36111e-015 2.78299e-014
lhumerus -43.6684 9.32572 64.5525
lradius 23.969
lwrist -13.4282
lhand -11.0089 14.0297
lfingers 7.12502
lthumb 15.0119 43.4655
rfemur -9.55399 2.74717 19.6996
rtibia 68.7374
rfoot -11.9569 -18.7859
rtoes -19.9207
lfemur -16.2229 -7.97888 -22.9906
ltibia 35.6548
lfoot -16.5523 9.82171
ltoes -11.4734
216
root -10.7349 14.8842 1.27495 198.191 -82.2638 -202.746
lowerback 11.2369 1.44575 -3.47841
upperback 7.65745 1.14133 -3.77211
thorax 1.71163 0.329512 -2.08316
lowerneck -5.79975 3.31262 8.02274
upperneck 22.3261 2.74605 0.374764
head 7.99714 1.75955 -1.01859
rclavicle 2.18663e-014 -2.38542e-015
rhumerus -42.838 1.88815 -87.9339
rradius 49.9533
rwrist -20.0102
rhand -12.5062 0.579146
rfingers 7.12502
rthumb 13.5692 -28.9587
lclavicle 2.18663e-014 -2.38542e-015
lhumerus -41.896 8.54631 64.1133
lradius 24.0445
lwrist -12.2527
lhand -14.2736 15.3479
lfingers 7.12502
lthumb 11.8652 44.9917
rfemur -12.3026 2.78443 19.4621
rtibia 70.9118
rfoot -13.0632 -19.377
rtoes -18.3967
lfemur -14.7349 -7.8359 -23.8861
ltibia 35.3113
lfoot -17.2563 10.0593
ltoes -10.7354
217
root -10.977 14.8956 1.30664 198.971 -81.9851 -203.654
lowerback 11.6568 1.24984 -2.41844
upperback 7.41609 0.920144 -4.78664
thorax 1.26683 0.274156 -3.7287
lowerneck -5.67833 3.36959 8.74289
upperneck 22.547 2.55838 0.973209
head 8.06026 1.77356 -0.957302
rclavicle -9.93923e-015 -6.36111e-015
rhumerus -43.107 0.948213 -89.2632
rradius 49.1085
rwrist -18.9197
rhand -12.0228 0.494457
rfingers 7.12502
rthumb 14.035 -29.0117
lclavicle -9.93923e-015 -6.36111e-015
lhumerus -40.2122 7.826 63.8296
lradius 24.5375
lwrist -10.2766
lhand -17.309 16.4833
lfingers 7.12502
lthumb 8.93715 46.274
rfemur -15.0079 2.9294 19.5198
rtibia 72.2196
rfoot -14.1729 -19.7944
rtoes -17.535
lfemur -13.3828 -7.77043 -24.5987
ltibia 35.0524
lfoot -18.0517 10.2767
ltoes -9.71807
218
root -11.2182 14.9022 1.33672 199.183 -81.7224 -203.94
lowerback 11.721 1.0905 -2.76218
upperback 7.35872 0.673285 -4.69823
thorax 1.15337 0.137697 -3.41622
lowerneck -5.58068 3.43581 8.71818
upperneck 22.6547 2.6801 0.825481
head 8.08417 1.81408 -0.993178
rclavicle -3.18055e-015 3.18055e-014
rhumerus -43.1358 1.4496 -89.3068
rradius 48.4114
rwrist -18.4892
rhand -11.9445 0.503542
rfingers 7.12502
rthumb 14.1105 -28.9974
lclavicle -3.18055e-015 3.18055e-014
lhumerus -38.8237 8.87481 64.6659
lradius 25.3674
lwrist -8.2386
lhand -20.0241 17.2471
lfingers 7.12502
lthumb 6.31654 47.1329
rfemur -17.5991 3.18355 19.7611
rtibia 72.7057
rfoot -15.2027 -20.0155
rtoes -17.8984
lfemur -12.1419 -7.72465 -25.2151
ltibia 34.8957
lfoot -18.923 10.4941
ltoes -8.60615
219
root -11.4586 14.902 1.36659 199.23 -81.4494 -204.017
lowerback 11.7541 0.930277 -3.05231
upperback 7.28956 0.433371 -4.60202
thorax 1.04911 0.00793308 -3.12577
lowerneck -5.468 3.46629 8.66712
upperneck 22.7226 2.74633 0.73744
head 8.08864 1.83048 -1.01018
rclavicle -8.74653e-015 -6.91771e-014
rhumerus -43.2536 1.86647 -89.3127
rradius 47.8562
rwrist -18.3919
rhand -12.2013 0.584085
rfingers 7.12502
rthumb 13.863 -28.9339
lclavicle -8.74653e-015 -6.91771e-014
lhumerus -37.511 9.61464 65.7524
lradius 26.7805
lwrist -5.31761
lhand -22.1902 17.7814
lfingers 7.12502
lthumb 4.22514 47.7193
rfemur -20.0295 3.50572 20.0784
rtibia 72.4243
rfoot -16.1736 -20.0694
rtoes -19.0331
lfemur -11.0096 -7.68614 -25.8123
ltibia 34.8573
lfoot -19.8449 10.7771
ltoes -7.6317
220
root -11.6987 14.8957 1.3947 198.951 -81.119 -203.755
lowerback 11.7818 0.786892 -3.31841
upperback 7.21952 0.218436 -4.49581
thorax 0.951111 -0.107994 -2.84088
lowerneck -5.35794 3.46999 8.62898
upperneck 22.736 2.77548 0.658442
head 8.07386 1.83067 -1.02964
rclavicle 7.95139e-015 -2.22639e-014
rhumerus -43.4491 2.21083 -89.2903
rradius 47.4679
rwrist -18.5905
rhand -12.6755 0.683359
rfingers 7.12502
rthumb 13.406 -28.8653
lclavicle 7.95139e-015 -2.22639e-014
lhumerus -36.3181 9.95825 67.0668
lradius 28.8179
lwrist -1.63913
lhand -23.7847 18.1291
lfingers 7.12502
lthumb 2.68532 48.0919
rfemur -22.2488 3.91837 20.4779
rtibia 71.4306
rfoot -17.1251 -20.09
rtoes -20.6381
lfemur -9.92874 -7.60879 -26.3807
ltibia 34.8885
lfoot -20.8222 11.1317
ltoes -6.76753
